<svg xmlns="http://www.w3.org/2000/svg" viewBox="0 0 64 64" fill="none">
  <path d="M31.885 2C16.17 2 17.36 8.8 17.36 8.8l.02 7.04h14.78v2.11H13.1S2 16.57 2 32.43s9.7 15.28 9.7 15.28h5.79V40.3s-.31-9.7 9.54-9.7h14.67s9.23.15 9.23-8.92V10.12S52.14 2 31.885 2zm-8.16 4.68a2.96 2.96 0 1 1 0 5.92 2.96 2.96 0 0 1 0-5.92z" fill="#366C9C"/>
  <path d="M32.115 62c15.715 0 14.525-6.8 14.525-6.8l-.02-7.04H31.84v-2.11h19.06S62 47.43 62 31.57s-9.7-15.28-9.7-15.28h-5.79v7.42s.31 9.7-9.54 9.7H22.3s-9.23-.15-9.23 8.92V53.88S11.86 62 32.115 62zm8.16-4.68a2.96 2.96 0 1 1 0-5.92 2.96 2.96 0 0 1 0 5.92z" fill="#FFD242"/>
</svg>
